<?xml version="1.0" encoding="UTF-8"?>
<!DOCTYPE svg PUBLIC "-//W3C//DTD SVG 1.1//EN" "http://www.w3.org/Graphics/SVG/1.1/DTD/svg11.dtd">
<svg xmlns="http://www.w3.org/2000/svg" version="1.1" width="225px" height="225px" style="shape-rendering:geometricPrecision; text-rendering:geometricPrecision; image-rendering:optimizeQuality; fill-rule:evenodd; clip-rule:evenodd" xmlns:xlink="http://www.w3.org/1999/xlink">
<g><path style="opacity:0.981" fill="#fefdfd" d="M 224.5,97.5 C 224.5,107.5 224.5,117.5 224.5,127.5C 217.186,168.665 194.519,198.165 156.5,216C 146.644,219.791 136.644,222.625 126.5,224.5C 116.167,224.5 105.833,224.5 95.5,224.5C 46.1999,215.202 14.1999,186.536 -0.5,138.5C -0.5,121.5 -0.5,104.5 -0.5,87.5C 13.7053,38.4672 46.0386,9.63384 96.5,1C 152.642,-3.13231 192.809,20.0344 217,70.5C 220.308,79.4134 222.808,88.4134 224.5,97.5 Z"/></g>
<g><path style="opacity:1" fill="#ea4334" d="M 53.5,92.5 C 42.3162,83.7392 31.3162,74.7392 20.5,65.5C 39.6024,29.6021 69.6024,10.9354 110.5,9.5C 137.387,8.90336 160.721,17.57 180.5,35.5C 171.348,45.1525 162.014,54.6525 152.5,64C 151.092,64.3152 149.759,63.9819 148.5,63C 123.901,45.042 99.2339,45.042 74.5,63C 64.889,71.0897 57.889,80.923 53.5,92.5 Z"/></g>
<g><path style="opacity:1" fill="#fabc09" d="M 20.5,65.5 C 31.3162,74.7392 42.3162,83.7392 53.5,92.5C 50.8333,105.167 50.8333,117.833 53.5,130.5C 53.4894,132.017 52.8228,133.184 51.5,134C 41.0062,141.666 30.6729,149.499 20.5,157.5C 12.467,143.196 8.80037,127.696 9.5,111C 8.87269,94.6792 12.5394,79.5125 20.5,65.5 Z"/></g>
<g><path style="opacity:1" fill="#4184f3" d="M 112.5,93.5 C 144.833,93.5 177.167,93.5 209.5,93.5C 214.707,126.323 207.54,155.99 188,182.5C 185.564,185.447 182.731,187.78 179.5,189.5C 168.794,181.156 158.128,172.822 147.5,164.5C 157.931,156.648 164.598,146.315 167.5,133.5C 149.341,132.503 131.008,132.17 112.5,132.5C 112.5,119.5 112.5,106.5 112.5,93.5 Z"/></g>
<g><path style="opacity:1" fill="#34a853" d="M 53.5,130.5 C 70.1056,168.798 98.4389,181.631 138.5,169C 141.553,167.473 144.553,165.973 147.5,164.5C 158.128,172.822 168.794,181.156 179.5,189.5C 168.363,201.079 154.696,208.579 138.5,212C 96.8012,221.099 61.6345,209.933 33,178.5C 27.7401,172.091 23.5734,165.091 20.5,157.5C 30.6729,149.499 41.0062,141.666 51.5,134C 52.8228,133.184 53.4894,132.017 53.5,130.5 Z"/></g>
<g><path style="opacity:1" fill="#92b4f7" d="M 112.5,93.5 C 112.5,106.5 112.5,119.5 112.5,132.5C 131.008,132.17 149.341,132.503 167.5,133.5C 148.833,133.5 130.167,133.5 111.5,133.5C 111.171,119.99 111.504,106.656 112.5,93.5 Z"/></g>
</svg>
